<svg width="53" height="65" viewBox="0 0 53 65" fill="none" xmlns="http://www.w3.org/2000/svg">
<g id="Group">
<path id="Vector" d="M6.13477 32.7594C6.21791 32.7594 6.29048 32.7594 6.36153 32.7594C7.24289 32.7594 8.12576 32.7594 9.00713 32.7594H29.4523C31.7668 32.7594 34.0798 32.7594 36.3943 32.7594C38.0799 32.7594 39.7656 32.7594 41.4512 32.7594C41.6885 32.7594 41.749 32.6987 41.7505 32.4574C41.7551 31.9232 41.7551 31.3905 41.7551 30.8563C41.7551 30.8108 41.743 30.7653 41.7369 30.7228H6.13477V32.7609V32.7594ZM41.7551 24.587H6.1393V26.6267C6.24059 26.6267 6.32978 26.6267 6.42049 26.6267C7.74329 26.6267 9.0676 26.6267 10.3904 26.6267C20.743 26.6267 31.0956 26.6267 41.4467 26.6267C41.6689 26.6267 41.7475 26.5508 41.7505 26.3247C41.7535 25.9848 41.7551 25.6448 41.7566 25.3049C41.7566 25.0696 41.7566 24.8344 41.7566 24.587H41.7551ZM6.13477 38.8861H29.0864C29.1227 38.5325 29.1409 38.194 29.1983 37.8617C29.2558 37.5278 29.3525 37.2015 29.4326 36.8707H6.13477V38.8876V38.8861ZM29.1031 43.0216H6.13477V45.0355H29.1031V43.0216ZM41.7445 18.4467H20.2819V20.4667H41.743V18.4467H41.7445ZM41.746 12.2988H20.2834V14.3188H41.7445V12.2988H41.746ZM24.4015 49.8372H6.14081V51.8618H23.7408C23.7136 51.1121 23.9192 50.4488 24.4015 49.8372Z" fill="#55657F"/>
<path id="Vector_2" d="M4.85731 64.9998C4.65927 64.9922 4.46123 64.9786 4.26319 64.9786C2.64257 64.9755 1.46642 64.1924 0.627384 62.8569C0.184436 62.1527 0 61.3651 0 60.5259C0.00302354 45.7897 0 31.0521 0.00907061 16.3145C0.00907061 15.9032 0.0498884 15.4767 0.166295 15.0837C0.356777 14.4356 0.734719 13.8908 1.22 13.4067C3.71895 10.9178 6.20279 8.41522 8.69267 5.91721C10.3738 4.22962 12.0564 2.54202 13.739 0.85594C14.0746 0.520545 14.4933 0.33843 14.9393 0.192738C15.6014 -0.0227643 16.2833 0.00455287 16.9636 0.00455287C18.2077 0.00455287 19.4534 0.00151762 20.6976 0.00151762C21.8632 0.00151762 23.0303 0.00455287 24.1959 0.00607049C26.5164 0.00607049 28.837 0.00607049 31.156 0.00607049C33.4524 0.00607049 35.7488 0.00607049 38.0437 0.00607049C39.9832 0.00607049 41.9229 -0.00758812 43.8624 0.00607049C45.1142 0.0136586 46.1891 0.452252 47.0054 1.43719C47.5693 2.11708 47.8596 2.90777 47.8611 3.79102C47.8671 7.3711 47.8641 10.9497 47.8641 14.5297C47.8641 20.5061 47.8641 26.481 47.8641 32.4574C47.8641 33.1373 47.8641 33.8157 47.8641 34.4956C47.8641 34.5532 47.8596 34.6109 47.855 34.6989C47.6464 34.5305 47.471 34.3575 47.2685 34.2345C46.8452 33.9781 46.4068 33.7428 45.9699 33.5076C45.858 33.4484 45.8293 33.3756 45.8293 33.2542C45.8323 30.2326 45.8323 27.211 45.8323 24.1894C45.8323 17.442 45.8293 10.6962 45.8368 3.94886C45.8368 2.98365 45.217 2.25367 44.3764 2.11405C44.1935 2.0837 44.0061 2.05638 43.8216 2.05638C36.4245 2.05334 29.0275 2.05334 21.6304 2.05334C19.8903 2.05334 18.1488 2.05334 16.4087 2.05334C16.3422 2.05334 16.2772 2.05334 16.185 2.05334V2.76966C16.185 4.16436 16.185 5.56057 16.185 6.95527C16.185 8.7324 16.1759 10.5095 16.188 12.2867C16.1956 13.5144 15.7254 14.507 14.7957 15.2885C14.3754 15.6406 13.8962 15.885 13.3701 16.0458C12.8651 16.2006 12.3527 16.2537 11.8281 16.2537C8.64883 16.2507 5.47109 16.2537 2.29184 16.2537H2.05298C2.04845 16.3281 2.0424 16.3812 2.0424 16.4343C2.0424 17.6591 2.04693 18.8853 2.04693 20.11C2.04693 21.2983 2.0424 22.4881 2.0424 23.6764C2.0424 25.9756 2.0424 28.2748 2.0424 30.574C2.0424 32.855 2.0424 35.136 2.0424 37.417C2.0424 39.6919 2.0424 41.9668 2.0424 44.2418C2.0424 46.5227 2.0424 48.8037 2.0424 51.0847C2.0424 53.3839 2.0424 55.6831 2.0424 57.9823C2.0424 58.9111 2.0303 59.8384 2.05449 60.7656C2.08171 61.787 2.87992 62.7112 3.87315 62.9161C3.96688 62.9358 4.06515 62.9313 4.1619 62.9313C12.3391 62.9313 20.5147 62.9313 28.6919 62.9313C30.19 62.9313 31.6897 62.9328 33.1879 62.9283C33.3239 62.9283 33.4207 62.9647 33.5189 63.0633C34.1493 63.6916 34.7858 64.3138 35.4404 64.9573C35.3119 64.974 35.2046 64.9877 35.0972 65.0013H4.85731V64.9998Z" fill="#55657F"/>
<path id="Vector_3" d="M31.1473 50.5111C31.1473 50.42 31.1473 50.3487 31.1473 50.2774C31.1473 46.4848 31.1397 42.6938 31.1518 38.9013C31.1548 37.7342 31.5932 36.7356 32.4413 35.9267C32.9946 35.4001 33.6492 35.0662 34.3885 34.9038C34.6455 34.8477 34.9146 34.8204 35.1776 34.8204C37.988 34.8143 40.7984 34.8037 43.6073 34.8234C45.3095 34.8355 46.5582 35.6262 47.3292 37.1605C47.6104 37.719 47.7283 38.3124 47.7283 38.9346C47.7283 40.4022 47.7283 41.8697 47.7283 43.3388C47.7283 45.3527 47.7329 47.3666 47.7344 49.3804C47.7344 49.7492 47.7344 50.118 47.7344 50.5035C47.8054 50.5065 47.8704 50.5111 47.9339 50.5126C49.0224 50.5126 50.1094 50.4974 51.1979 50.5232C51.6756 50.5338 52.1533 50.6264 52.5615 50.9148C53.0044 51.2274 53.083 51.6432 52.9258 52.1668C52.7429 52.7784 52.2969 53.2079 51.863 53.6389C49.4457 56.0367 47.0269 58.4346 44.6065 60.8294C43.7494 61.6777 42.8967 62.5337 42.0214 63.3638C41.648 63.719 41.1794 63.9329 40.688 64.0999C40.168 64.2759 39.6374 64.3427 39.0961 64.3017C38.3796 64.2471 37.7129 64.0346 37.1082 63.6279C36.3991 63.1514 35.861 62.4958 35.2593 61.9054C33.6251 60.3013 32.0044 58.6835 30.3793 57.0702C29.1699 55.8698 27.9605 54.6694 26.7541 53.4659C26.4064 53.1199 26.0844 52.7526 25.8924 52.2897C25.5991 51.5856 25.8561 51.0119 26.553 50.7372C26.9627 50.5763 27.3951 50.5111 27.838 50.5126C28.931 50.5156 30.0255 50.5126 31.1473 50.5126V50.5111ZM28.7511 52.5538C28.798 52.6191 28.8176 52.6555 28.8464 52.6828C29.2167 53.0501 29.5871 53.4158 29.9575 53.7831C31.2606 55.0746 32.5653 56.3645 33.8669 57.6576C35.2079 58.9885 36.5503 60.318 37.8867 61.6535C38.7031 62.4684 40.0576 62.4775 40.8694 61.6686C41.9307 60.6109 42.9965 59.5591 44.0593 58.5059C45.89 56.6924 47.7223 54.8803 49.553 53.0668C49.7103 52.912 49.8614 52.7511 50.0141 52.5933C50.0066 52.5796 50.0005 52.5644 49.993 52.5508H45.6935V52.3671C45.6935 47.9144 45.6935 43.4602 45.6905 39.0075C45.6905 38.8041 45.6708 38.5962 45.6255 38.3974C45.4335 37.5354 44.608 36.8616 43.7025 36.8616C40.8558 36.8601 38.0092 36.8616 35.1625 36.8616C34.6667 36.8616 34.2358 37.0482 33.8745 37.3715C33.3922 37.8025 33.173 38.3564 33.1745 39.009C33.1791 43.4435 33.1761 47.8795 33.1761 52.314C33.1761 52.3899 33.1761 52.4658 33.1761 52.5553H28.7481L28.7511 52.5538Z" fill="#55657F"/>
<path id="Vector_4" d="M6.13477 32.7594V30.7212H41.7354C41.7414 30.7637 41.7535 30.8092 41.7535 30.8547C41.7535 31.3889 41.7535 31.9216 41.749 32.4558C41.7475 32.6987 41.687 32.7578 41.4497 32.7578C39.7641 32.7578 38.0784 32.7578 36.3928 32.7578C34.0783 32.7578 31.7653 32.7578 29.4508 32.7578H9.00864C8.12728 32.7578 7.2444 32.7578 6.36304 32.7578C6.29199 32.7578 6.22094 32.7578 6.13628 32.7578L6.13477 32.7594Z" fill="#55657F"/>
<path id="Vector_5" d="M41.755 24.5869C41.755 24.8343 41.755 25.0695 41.755 25.3047C41.755 25.6447 41.7519 25.9846 41.7489 26.3246C41.7474 26.5492 41.6688 26.6266 41.445 26.6266C31.0925 26.6266 20.7399 26.6266 10.3888 26.6266C9.06599 26.6266 7.74168 26.6266 6.41888 26.6266C6.32969 26.6266 6.23898 26.6266 6.1377 26.6266V24.5869H41.755Z" fill="#55657F"/>
<path id="Vector_6" d="M6.13477 38.8861V36.8691H29.4326C29.3525 37.2 29.2557 37.5278 29.1983 37.8601C29.1409 38.1925 29.1227 38.5325 29.0864 38.8845H6.13477V38.8861Z" fill="#55657F"/>
<path id="Vector_7" d="M29.1031 43.0232V45.0371H6.13477V43.0232H29.1031Z" fill="#55657F"/>
<path id="Vector_8" d="M41.7428 18.4482V20.4682H20.2817V18.4482H41.7428Z" fill="#55657F"/>
<path id="Vector_9" d="M41.7443 12.3003V14.3203H20.2832V12.3003H41.7443Z" fill="#55657F"/>
<path id="Vector_10" d="M24.4002 49.8372C23.918 50.4488 23.7124 51.112 23.7396 51.8617H6.14111V49.8372H24.4018H24.4002Z" fill="#55657F"/>
</g>
</svg>
