<svg width="74" height="41" viewBox="0 0 74 41" fill="none" xmlns="http://www.w3.org/2000/svg">
<g id="&#208;&#152;&#208;&#186;&#208;&#190;&#208;&#189;&#208;&#186;&#208;&#176; &#208;&#179;&#208;&#187;&#208;&#176;&#208;&#183;">
<path id="Vector" d="M36.8349 0.00585938C43.1367 0.063363 49.0228 1.7811 54.608 4.62384C61.4892 8.12714 67.4386 12.8601 72.7216 18.4586C72.8558 18.6016 72.9796 18.755 73.1064 18.9054C73.8392 19.7768 73.8938 20.4078 73.0902 21.2365C71.4152 22.9631 69.7358 24.6941 67.9503 26.3027C63.698 30.1318 59.0254 33.3668 53.8752 35.8851C49.4533 38.0467 44.8191 39.5108 39.9033 39.9827C34.2679 40.5252 28.8493 39.5521 23.6003 37.5336C16.346 34.7425 10.0899 30.3884 4.42357 25.1394C3.09214 23.9052 1.84475 22.5782 0.589996 21.266C-0.182616 20.4594 -0.194412 19.7222 0.542814 18.926C7.31054 11.6231 15.0838 5.75474 24.5041 2.27651C28.4704 0.81091 32.5841 0.047144 36.8349 0.00585938ZM3.44601 20.0554C3.54037 20.1749 3.58018 20.2368 3.63031 20.2899C8.7614 25.6244 14.5324 30.0979 21.2117 33.3476C25.3047 35.3396 29.5924 36.699 34.1338 37.1311C38.7517 37.5704 43.24 36.8568 47.6043 35.3484C54.1701 33.0807 59.9145 29.4064 65.1503 24.9064C66.9123 23.3921 68.571 21.7584 70.2917 20.166C70.1236 19.9522 70.0573 19.852 69.9747 19.7665C64.1315 13.7935 57.5819 8.82603 49.8013 5.61909C42.3641 2.55519 34.7987 1.989 27.0756 4.4587C21.738 6.16464 16.9033 8.83045 12.4048 12.1347C9.19342 14.4938 6.20913 17.1139 3.44748 20.0554H3.44601Z" fill="#FFFFFF"/>
<path id="Vector_2" d="M36.9146 4.4661C45.6213 4.50148 52.6043 11.7071 52.4539 20.5052C52.3123 28.7547 45.2453 35.7112 36.7849 35.6846C28.1313 35.6581 21.2338 28.684 21.2442 19.9729C21.2545 11.371 28.2478 4.44988 36.9146 4.46462V4.4661ZM36.7642 32.777C43.3653 32.895 49.3958 27.587 49.5462 20.4005C49.6981 13.1698 44.0436 7.42385 36.8999 7.3575C29.9316 7.29262 24.1562 12.9884 24.1149 19.9655C24.0721 27.0208 29.7149 32.7357 36.7642 32.777Z" fill="#FFFFFF"/>
</g>
</svg>
