<svg width="542" height="372" viewBox="0 0 542 372" fill="none" xmlns="http://www.w3.org/2000/svg">
<path d="M105.034 0.484511L54.1895 43.396L3.3822 0.484511C2.04418 -0.630075 0 0.298747 0 2.04493V23.8165C0 25.4512 0.706173 27.0116 1.89552 28.0891L41.8872 63.6443C43.2252 64.8332 43.9685 66.5051 43.9685 68.2884V80.326C43.9685 82.1465 42.4819 83.6326 40.6607 83.6326H3.45653C1.56101 83.6326 0 85.193 0 87.0878V104.773C0 106.073 0.74334 107.225 1.82118 107.782L70.0969 167.635C71.3234 168.713 70.5801 170.719 68.9447 170.719H3.45653C1.56101 170.719 0 172.279 0 174.174V191.859C0 192.862 0.446004 193.754 1.11501 194.385L70.5058 255.576C71.8438 256.765 71.0261 258.994 69.2049 258.994H3.45653C1.56101 258.994 0 260.554 0 262.449V353.102C0 353.548 0.037167 354.031 0.111501 354.477C1.04068 363.802 8.92008 371.084 18.5092 371.084H104.96C106.855 371.084 108.416 369.524 108.416 367.629V352.582C108.416 350.947 107.264 349.573 105.74 349.238H89.4238C87.5282 349.238 85.9672 347.678 85.9672 345.783V287.193C85.9672 285.298 87.5282 283.738 89.4238 283.738H104.811L104.96 283.589C106.855 283.589 108.416 282.029 108.416 280.134V262.449C108.416 261.52 108.044 260.703 107.487 260.109L107.413 260.034L38.9138 198.658C37.5758 197.469 38.4307 195.277 40.2147 195.277H104.96C106.855 195.277 108.416 193.716 108.416 191.822V174.137C108.416 173.134 108.007 172.242 107.338 171.648L39.5828 111.423C38.3192 110.271 39.0997 108.153 40.8093 108.153H104.96C106.855 108.153 108.416 106.593 108.416 104.698V87.0135C108.416 85.1187 106.855 83.5583 104.96 83.5583H70.5058C68.6846 83.5583 67.1979 82.0721 67.1979 80.2517V65.7249C67.1979 63.9416 67.9412 62.2325 69.2793 61.0808L105.517 28.9064C107.338 27.2717 108.379 24.9682 108.379 22.5161V2.04493C108.379 0.298747 106.335 -0.630075 104.997 0.484511H105.034ZM65.8227 345.672C65.8227 347.566 64.2617 349.127 62.3662 349.127H24.9762C23.0807 349.127 21.5197 347.566 21.5197 345.672V287.082C21.5197 285.187 23.0807 283.626 24.9762 283.626H62.3662C64.2617 283.626 65.8227 285.187 65.8227 287.082V345.672Z" fill="white"/>
<path d="M147.925 171.945H151.158L163.126 197.952H159.967L156.696 190.855H142.424L139.153 197.952H135.92L147.925 171.945ZM155.433 188.143L149.56 175.437L143.688 188.143H155.433Z" fill="white"/>
<path d="M176.209 195.685C180.372 195.685 183.717 193.307 185.24 189.518H188.437C186.578 195.054 182.044 198.509 176.283 198.509C168.998 198.509 163.572 192.713 163.572 184.985C163.572 177.257 168.961 171.387 176.283 171.387C182.007 171.387 186.578 174.842 188.437 180.378H185.203C183.717 176.626 180.372 174.211 176.209 174.211C170.597 174.211 166.545 178.743 166.545 184.948C166.545 191.153 170.634 195.685 176.209 195.685Z" fill="white"/>
<path d="M203.824 195.685C207.987 195.685 211.332 193.307 212.855 189.518H216.052C214.193 195.054 209.659 198.509 203.898 198.509C196.613 198.509 191.187 192.713 191.187 184.985C191.187 177.257 196.576 171.387 203.898 171.387C209.622 171.387 214.193 174.842 216.052 180.378H212.818C211.332 176.626 207.987 174.211 203.824 174.211C198.212 174.211 194.16 178.743 194.16 184.948C194.16 191.153 198.249 195.685 203.824 195.685Z" fill="white"/>
<path d="M231.476 171.387C238.91 171.387 244.262 176.96 244.262 184.985C244.262 193.01 238.91 198.509 231.476 198.509C224.043 198.509 218.765 192.713 218.765 184.985C218.765 177.257 224.191 171.387 231.476 171.387ZM231.476 195.685C237.274 195.685 241.288 191.264 241.288 184.948C241.288 178.632 237.311 174.211 231.476 174.211C225.641 174.211 221.738 178.743 221.738 184.948C221.738 191.153 225.864 195.685 231.476 195.685Z" fill="white"/>
<path d="M248.945 171.945H251.918V195.128H267.714V171.945H270.687V195.128H274.515V204.119H271.728V197.952H248.945V171.945Z" fill="white"/>
<path d="M298.674 197.952V177.295L281.689 197.952H279.347V171.945H282.321V192.564L299.306 171.945H301.647V197.952H298.674Z" fill="white"/>
<path d="M316.142 171.945H319.376L331.344 197.952H328.185L324.914 190.855H310.642L307.371 197.952H304.138L316.142 171.945ZM323.65 188.143L317.778 175.437L311.905 188.143H323.65Z" fill="white"/>
<path d="M333.908 171.945H336.882V195.128H352.678V171.945H355.651V195.128H359.479V204.119H356.692V197.952H333.908V171.945Z" fill="white"/>
<path d="M383.638 197.952V177.295L366.652 197.952H364.311V171.945H367.284V192.564L384.27 171.945H386.611V197.952H383.638Z" fill="white"/>
<path d="M389.807 197.952L396.535 188.812C393.19 187.363 390.774 184.316 390.774 180.787C390.774 175.623 395.159 171.945 400.697 171.945H411.476V197.952H408.502V189.666H400.697C400.251 189.666 399.805 189.629 399.396 189.592L393.301 197.952H389.807ZM400.697 186.843H408.502V174.694H400.697C396.683 174.694 393.747 177.257 393.747 180.787C393.747 184.316 396.832 186.843 400.697 186.843Z" fill="white"/>
<path d="M155.247 241.16V220.503L138.261 241.16H135.92V215.153H138.893V235.773L155.879 215.153H158.22V241.16H155.247Z" fill="white"/>
<path d="M164.278 215.153H167.252V226.708H182.676V215.153H185.649V241.16H182.676V229.569H167.252V241.16H164.278V215.153Z" fill="white"/>
<path d="M200.999 217.531V214.596H204.307V217.531C210.44 217.903 214.714 222.138 214.714 228.194C214.714 234.25 210.44 238.411 204.307 238.782V241.718H200.999V238.782C194.941 238.374 190.555 233.99 190.555 228.194C190.555 222.398 194.904 217.94 200.999 217.531ZM200.999 235.959V220.28C196.614 220.689 193.529 223.884 193.529 228.157C193.529 232.429 196.614 235.55 200.999 235.959ZM204.307 235.959C208.73 235.587 211.741 232.541 211.741 228.157C211.741 223.773 208.73 220.652 204.307 220.28V235.959Z" fill="white"/>
<path d="M219.471 215.153H230.175C235.676 215.153 240.062 218.869 240.062 223.996C240.062 229.123 235.416 232.875 230.175 232.875H222.445V241.16H219.471V215.153ZM230.175 217.94H222.445V230.089H230.175C234.003 230.089 237.088 227.414 237.088 223.996C237.088 220.578 234.152 217.94 230.175 217.94Z" fill="white"/>
<path d="M251.509 215.153H254.743L266.711 241.16H263.551L260.281 234.064H246.009L242.738 241.16H239.504L251.509 215.153ZM259.017 231.352L253.145 218.646L247.272 231.352H259.017Z" fill="white"/>
<path d="M279.793 238.894C283.956 238.894 287.301 236.516 288.825 232.727H292.021C290.163 238.262 285.629 241.718 279.868 241.718C272.583 241.718 267.156 235.922 267.156 228.194C267.156 220.466 272.546 214.596 279.868 214.596C285.591 214.596 290.163 218.051 292.021 223.587H288.788C287.301 219.835 283.956 217.42 279.793 217.42C274.181 217.42 270.13 221.952 270.13 228.157C270.13 234.361 274.218 238.894 279.793 238.894Z" fill="white"/>
<path d="M303.84 217.94H294.809V215.153H315.808V217.94H306.814V241.16H303.84V217.94Z" fill="white"/>
<path d="M320.008 215.153H330.712C336.213 215.153 340.598 218.869 340.598 223.996C340.598 229.123 335.952 232.875 330.712 232.875H322.981V241.16H320.008V215.153ZM330.712 217.94H322.981V230.089H330.712C334.54 230.089 337.625 227.414 337.625 223.996C337.625 220.578 334.689 217.94 330.712 217.94Z" fill="white"/>
<path d="M350.002 241.16L352.529 233.767H347.772L341.379 215.153H344.464L349.741 230.646H353.607L358.885 215.153H361.932L353.049 241.16H350.002Z" fill="white"/>
<path d="M368.139 241.16H365.166V215.153H368.139V226.819H372.376L381.594 215.153H385.162L374.755 228.157L386.165 241.16H382.486L372.339 229.494H368.139V241.16Z" fill="white"/>
<path d="M396.498 217.94H387.466V215.153H408.465V217.94H399.471V241.16H396.498V217.94Z" fill="white"/>
<path d="M418.426 241.16L420.953 233.767H416.196L409.803 215.153H412.888L418.166 230.646H422.031L427.309 215.153H430.357L421.474 241.16H418.426Z" fill="white"/>
<path d="M433.627 215.153H444.332C449.832 215.153 454.218 218.869 454.218 223.996C454.218 229.123 449.572 232.875 444.332 232.875H436.601V241.16H433.627V215.153ZM444.332 217.94H436.601V230.089H444.332C448.16 230.089 451.245 227.414 451.245 223.996C451.245 220.578 448.308 217.94 444.332 217.94Z" fill="white"/>
<path d="M459.049 215.153H462.023V226.708H477.447V215.153H480.42V241.16H477.447V229.569H462.023V241.16H459.049V215.153Z" fill="white"/>
<path d="M489.527 215.153V223.438H497.257C502.758 223.438 507.144 227.302 507.144 232.318C507.144 237.334 503.018 241.16 497.257 241.16H486.553V215.153H489.527ZM497.257 226.076H489.527V238.448H497.257C501.346 238.448 504.17 235.922 504.17 232.318C504.17 228.714 501.16 226.076 497.257 226.076ZM514.391 215.153V241.16H511.418V215.153H514.391Z" fill="white"/>
<path d="M541.672 241.16H537.992L529.592 230.312L521.155 241.16H517.55L527.771 228.008L517.81 215.153H521.453L529.63 225.63L537.769 215.153H541.337L531.414 227.934L541.672 241.16Z" fill="white"/>
<path d="M155.247 286.858V266.201L138.261 286.858H135.92V260.851H138.893V281.471L155.879 260.851H158.22V286.858H155.247Z" fill="white"/>
<path d="M164.278 260.851H167.252V272.406H182.676V260.851H185.649V286.858H182.676V275.267H167.252V286.858H164.278V260.851Z" fill="white"/>
<path d="M191.819 260.851H202.486C207.875 260.851 211.518 263.526 211.518 267.576C211.518 270.325 209.548 272.517 206.574 273.595C210.403 274.486 212.707 276.716 212.707 279.874C212.707 284.035 208.358 286.858 202.486 286.858H191.819V260.851ZM202.486 263.415H194.792V272.443H202.486C205.868 272.443 208.656 270.437 208.656 267.91C208.656 265.384 206.166 263.415 202.486 263.415ZM202.486 274.969H194.792V284.258H202.486C206.723 284.258 209.696 282.4 209.696 279.539C209.696 276.678 206.946 274.969 202.486 274.969Z" fill="white"/>
<path d="M217.464 260.851H234.896V263.638H220.438V272.406H234.301V275.267H220.438V284.035H234.896V286.858H217.464V260.851Z" fill="white"/>
<path d="M252.067 284.592C256.229 284.592 259.574 282.214 261.098 278.425H264.295C262.436 283.96 257.902 287.416 252.141 287.416C244.856 287.416 239.43 281.62 239.43 273.892C239.43 266.164 244.819 260.294 252.141 260.294C257.865 260.294 262.436 263.749 264.295 269.285H261.061C259.574 265.533 256.229 263.118 252.067 263.118C246.454 263.118 242.403 267.65 242.403 273.855C242.403 280.059 246.492 284.592 252.067 284.592Z" fill="white"/>
<path d="M276.114 263.638H267.082V260.851H288.081V263.638H279.087V286.858H276.114V263.638Z" fill="white"/>
<path d="M303.32 260.294C310.754 260.294 316.106 265.867 316.106 273.892C316.106 281.917 310.754 287.416 303.32 287.416C295.887 287.416 290.609 281.62 290.609 273.892C290.609 266.164 296.035 260.294 303.32 260.294ZM303.32 284.592C309.118 284.592 313.132 280.171 313.132 273.855C313.132 267.539 309.155 263.118 303.32 263.118C297.485 263.118 293.582 267.65 293.582 273.855C293.582 280.059 297.708 284.592 303.32 284.592Z" fill="white"/>
<path d="M320.789 260.851H331.493C336.993 260.851 341.379 264.567 341.379 269.694C341.379 274.821 336.733 278.573 331.493 278.573H323.762V286.858H320.789V260.851ZM331.493 263.638H323.762V275.787H331.493C335.321 275.787 338.406 273.112 338.406 269.694C338.406 266.276 335.47 263.638 331.493 263.638Z" fill="white"/>
<path d="M357.658 260.294C365.091 260.294 370.443 265.867 370.443 273.892C370.443 281.917 365.091 287.416 357.658 287.416C350.225 287.416 344.947 281.62 344.947 273.892C344.947 266.164 350.373 260.294 357.658 260.294ZM357.658 284.592C363.456 284.592 367.47 280.171 367.47 273.855C367.47 267.539 363.493 263.118 357.658 263.118C351.823 263.118 347.92 267.65 347.92 273.855C347.92 280.059 352.046 284.592 357.658 284.592Z" fill="white"/>
<path d="M375.127 260.851H385.794C391.183 260.851 394.825 263.526 394.825 267.576C394.825 270.325 392.855 272.517 389.882 273.595C393.71 274.486 396.015 276.716 396.015 279.874C396.015 284.035 391.666 286.858 385.794 286.858H375.127V260.851ZM385.794 263.415H378.1V272.443H385.794C389.176 272.443 391.963 270.437 391.963 267.91C391.963 265.384 389.473 263.415 385.794 263.415ZM385.794 274.969H378.1V284.258H385.794C390.031 284.258 393.004 282.4 393.004 279.539C393.004 276.678 390.254 274.969 385.794 274.969Z" fill="white"/>
<path d="M155.247 327.578V306.921L138.261 327.578H135.92V301.571H138.893V322.191L155.879 301.571H158.22V327.578H155.247Z" fill="white"/>
<path d="M176.543 327.578H173.57V301.571H176.543V313.237H180.78L189.998 301.571H193.566L183.159 314.574L194.569 327.578H190.89L180.743 315.912H176.543V327.578Z" fill="white"/>
<path d="M197.84 301.571H208.544C214.045 301.571 218.43 305.286 218.43 310.413C218.43 315.54 213.785 319.293 208.544 319.293H200.813V327.578H197.84V301.571ZM208.544 304.357H200.813V316.506H208.544C212.372 316.506 215.457 313.831 215.457 310.413C215.457 306.995 212.521 304.357 208.544 304.357Z" fill="white"/>
<path d="M223.262 301.571H240.694V304.357H226.236V313.125H240.099V315.986H226.236V324.754H240.694V327.578H223.262V301.571Z" fill="white"/>
<path d="M247.83 324.754C250.06 320.779 251.249 316.506 251.249 311.565V301.571H266.971V324.754H270.427V333.745H267.454V327.578H247.83V333.745H244.856V324.754H247.83ZM263.997 324.754V304.357H254.222V311.565C254.222 316.469 253.107 320.853 250.877 324.754H263.997Z" fill="white"/>
<path d="M293.917 327.578V306.921L276.931 327.578H274.59V301.571H277.563V322.191L294.548 301.571H296.89V327.578H293.917Z" fill="white"/>
<path d="M310.047 304.357H301.016V301.571H322.015V304.357H313.021V327.578H310.047V304.357Z" fill="white"/>
<path d="M337.253 301.013C344.687 301.013 350.039 306.586 350.039 314.611C350.039 322.636 344.687 328.135 337.253 328.135C329.82 328.135 324.542 322.339 324.542 314.611C324.542 306.884 329.969 301.013 337.253 301.013ZM337.253 325.311C343.051 325.311 347.065 320.89 347.065 314.574C347.065 308.258 343.089 303.837 337.253 303.837C331.418 303.837 327.516 308.37 327.516 314.574C327.516 320.779 331.641 325.311 337.253 325.311Z" fill="white"/>
<path d="M354.722 301.571H365.426C370.927 301.571 375.313 305.286 375.313 310.413C375.313 315.54 370.667 319.293 365.426 319.293H357.695V327.578H354.722V301.571ZM365.426 304.357H357.695V316.506H365.426C369.254 316.506 372.339 313.831 372.339 310.413C372.339 306.995 369.403 304.357 365.426 304.357Z" fill="white"/>
<path d="M391.591 301.013C399.025 301.013 404.377 306.586 404.377 314.611C404.377 322.636 399.025 328.135 391.591 328.135C384.158 328.135 378.88 322.339 378.88 314.611C378.88 306.884 384.307 301.013 391.591 301.013ZM391.591 325.311C397.39 325.311 401.404 320.89 401.404 314.574C401.404 308.258 397.427 303.837 391.591 303.837C385.756 303.837 381.854 308.37 381.854 314.574C381.854 320.779 385.979 325.311 391.591 325.311Z" fill="white"/>
<path d="M409.097 301.571H419.764C425.153 301.571 428.796 304.246 428.796 308.295C428.796 311.045 426.826 313.237 423.852 314.314C427.681 315.206 429.985 317.435 429.985 320.593C429.985 324.754 425.636 327.578 419.764 327.578H409.097V301.571ZM419.764 304.134H412.07V313.162H419.764C423.146 313.162 425.934 311.156 425.934 308.63C425.934 306.103 423.444 304.134 419.764 304.134ZM419.764 315.689H412.07V324.977H419.764C424.001 324.977 426.974 323.119 426.974 320.259C426.974 317.398 424.224 315.689 419.764 315.689Z" fill="white"/>
<path d="M433.367 348.866H135.957V370.935H433.367V348.866Z" fill="#D86468"/>
</svg>
