<svg width="202" height="140" viewBox="0 0 202 140" fill="none" xmlns="http://www.w3.org/2000/svg">
<g id="Logo">
<g id="Group">
<g id="Group_2">
<path id="Vector" d="M55.1191 66.3745H56.3253L60.7897 76.076H59.6112L58.3911 73.4289H53.0672L51.8471 76.076H50.6409L55.1191 66.3745ZM57.9198 72.4172L55.7292 67.6773L53.5386 72.4172H57.9198Z" fill="black"/>
<path id="Vector_2" d="M65.6699 75.2305C67.2227 75.2305 68.4705 74.3435 69.039 72.9298H70.2313C69.5381 74.9949 67.8466 76.2838 65.6976 76.2838C62.9802 76.2838 60.9559 74.1217 60.9559 71.239C60.9559 68.3563 62.9663 66.1665 65.6976 66.1665C67.8327 66.1665 69.5381 67.4554 70.2313 69.5204H69.0251C68.4705 68.1207 67.2227 67.2198 65.6699 67.2198C63.5763 67.2198 62.0651 68.9106 62.0651 71.2251C62.0651 73.5396 63.5902 75.2305 65.6699 75.2305Z" fill="black"/>
<path id="Vector_3" d="M75.9714 75.2305C77.5242 75.2305 78.772 74.3435 79.3405 72.9298H80.5328C79.8396 74.9949 78.1481 76.2838 75.9991 76.2838C73.2817 76.2838 71.2574 74.1217 71.2574 71.239C71.2574 68.3563 73.2678 66.1665 75.9991 66.1665C78.1343 66.1665 79.8396 67.4554 80.5328 69.5204H79.3266C78.772 68.1207 77.5242 67.2198 75.9714 67.2198C73.8778 67.2198 72.3666 68.9106 72.3666 71.2251C72.3666 73.5396 73.8917 75.2305 75.9714 75.2305Z" fill="black"/>
<path id="Vector_4" d="M86.2865 66.1665C89.0594 66.1665 91.0559 68.2454 91.0559 71.239C91.0559 74.2326 89.0594 76.2838 86.2865 76.2838C83.5136 76.2838 81.5448 74.1217 81.5448 71.239C81.5448 68.3563 83.569 66.1665 86.2865 66.1665ZM86.2865 75.2305C88.4493 75.2305 89.9467 73.5812 89.9467 71.2251C89.9467 68.8691 88.4632 67.2198 86.2865 67.2198C84.1097 67.2198 82.654 68.9106 82.654 71.2251C82.654 73.5396 84.1929 75.2305 86.2865 75.2305Z" fill="black"/>
<path id="Vector_5" d="M92.8029 66.3745H93.912V75.0227H99.8044V66.3745H100.914V75.0227H102.342V78.3766H101.302V76.076H92.8029V66.3745Z" fill="black"/>
<path id="Vector_6" d="M111.354 76.076V68.3702L105.017 76.076H104.144V66.3745H105.253V74.0664L111.589 66.3745H112.463V76.076H111.354Z" fill="black"/>
<path id="Vector_7" d="M117.87 66.3745H119.076L123.541 76.076H122.362L121.142 73.4289H115.818L114.598 76.076H113.392L117.87 66.3745ZM120.671 72.4172L118.48 67.6773L116.289 72.4172H120.671Z" fill="black"/>
<path id="Vector_8" d="M124.497 66.3745H125.606V75.0227H131.499V66.3745H132.608V75.0227H134.036V78.3766H132.996V76.076H124.497V66.3745Z" fill="black"/>
<path id="Vector_9" d="M143.048 76.076V68.3702L136.712 76.076H135.838V66.3745H136.948V74.0664L143.284 66.3745H144.157V76.076H143.048Z" fill="black"/>
<path id="Vector_10" d="M145.349 76.076L147.859 72.6666C146.611 72.1261 145.71 70.9896 145.71 69.673C145.71 67.7466 147.346 66.3745 149.412 66.3745H153.432V76.076H152.323V72.9854H149.412C149.245 72.9854 149.079 72.9715 148.926 72.9577L146.653 76.076H145.349ZM149.412 71.9321H152.323V67.4001H149.412C147.914 67.4001 146.819 68.3564 146.819 69.673C146.819 70.9896 147.97 71.9321 149.412 71.9321Z" fill="black"/>
</g>
<g id="Group_3">
<path id="Vector_11" d="M57.8504 92.1942V84.4884L51.5143 92.1942H50.6409V82.4927H51.75V90.1846L58.0861 82.4927H58.9596V92.1942H57.8504Z" fill="black"/>
<path id="Vector_12" d="M61.2194 82.4927H62.3285V86.8029H68.0823V82.4927H69.1915V92.1942H68.0823V87.8701H62.3285V92.1942H61.2194V82.4927Z" fill="black"/>
<path id="Vector_13" d="M74.9176 83.3796V82.2847H76.1515V83.3796C78.4392 83.5181 80.0336 85.0981 80.0336 87.3572C80.0336 89.6162 78.4392 91.1685 76.1515 91.307V92.4019H74.9176V91.307C72.6577 91.1546 71.0217 89.5192 71.0217 87.3572C71.0217 85.1951 72.6438 83.532 74.9176 83.3796ZM74.9176 90.2537V84.4051C73.2816 84.5576 72.1308 85.7495 72.1308 87.3433C72.1308 88.9371 73.2816 90.1013 74.9176 90.2537ZM76.1515 90.2537C77.8014 90.1152 78.9245 88.9787 78.9245 87.3433C78.9245 85.7079 77.8014 84.5437 76.1515 84.4051V90.2537Z" fill="black"/>
<path id="Vector_14" d="M81.8082 82.4927H85.8012C87.8532 82.4927 89.4892 83.8786 89.4892 85.7912C89.4892 87.7038 87.7561 89.1035 85.8012 89.1035H82.9174V92.1942H81.8082V82.4927ZM85.8012 83.5321H82.9174V88.0641H85.8012C87.2293 88.0641 88.38 87.0662 88.38 85.7912C88.38 84.5161 87.2847 83.5321 85.8012 83.5321Z" fill="black"/>
<path id="Vector_15" d="M93.7597 82.4927H94.9659L99.4303 92.1942H98.2518L97.0317 89.547H91.7077L90.4876 92.1942H89.2814L93.7597 82.4927ZM96.5603 88.5353L94.3697 83.7954L92.1791 88.5353H96.5603Z" fill="black"/>
<path id="Vector_16" d="M104.31 91.3486C105.863 91.3486 107.111 90.4616 107.679 89.048H108.872C108.179 91.113 106.487 92.4019 104.338 92.4019C101.621 92.4019 99.5964 90.2399 99.5964 87.3572C99.5964 84.4744 101.607 82.2847 104.338 82.2847C106.473 82.2847 108.179 83.5736 108.872 85.6386H107.666C107.111 84.2388 105.863 83.338 104.31 83.338C102.217 83.338 100.706 85.0288 100.706 87.3433C100.706 89.6578 102.231 91.3486 104.31 91.3486Z" fill="black"/>
<path id="Vector_17" d="M113.281 83.5321H109.912V82.4927H117.745V83.5321H114.39V92.1942H113.281V83.5321Z" fill="black"/>
<path id="Vector_18" d="M119.312 82.4927H123.305C125.357 82.4927 126.993 83.8786 126.993 85.7912C126.993 87.7038 125.26 89.1035 123.305 89.1035H120.421V92.1942H119.312V82.4927ZM123.305 83.5321H120.421V88.0641H123.305C124.733 88.0641 125.884 87.0662 125.884 85.7912C125.884 84.5161 124.788 83.5321 123.305 83.5321Z" fill="black"/>
<path id="Vector_19" d="M130.501 92.1942L131.443 89.4362H129.669L127.284 82.4927H128.435L130.404 88.272H131.845L133.814 82.4927H134.951L131.637 92.1942H130.501Z" fill="black"/>
<path id="Vector_20" d="M137.266 92.1942H136.157V82.4927H137.266V86.8445H138.847L142.285 82.4927H143.616L139.734 87.3434L143.991 92.1942H142.618L138.833 87.8424H137.266V92.1942Z" fill="black"/>
<path id="Vector_21" d="M147.845 83.5321H144.476V82.4927H152.31V83.5321H148.954V92.1942H147.845V83.5321Z" fill="black"/>
<path id="Vector_22" d="M156.025 92.1942L156.968 89.4362H155.193L152.809 82.4927H153.959L155.928 88.272H157.37L159.339 82.4927H160.476L157.162 92.1942H156.025Z" fill="black"/>
<path id="Vector_23" d="M161.696 82.4927H165.689C167.741 82.4927 169.377 83.8786 169.377 85.7912C169.377 87.7038 167.644 89.1035 165.689 89.1035H162.805V92.1942H161.696V82.4927ZM165.689 83.5321H162.805V88.0641H165.689C167.117 88.0641 168.268 87.0662 168.268 85.7912C168.268 84.5161 167.172 83.5321 165.689 83.5321Z" fill="black"/>
<path id="Vector_24" d="M171.179 82.4927H172.288V86.8029H178.042V82.4927H179.151V92.1942H178.042V87.8701H172.288V92.1942H171.179V82.4927Z" fill="black"/>
<path id="Vector_25" d="M182.548 82.4927V85.5833H185.432C187.484 85.5833 189.12 87.0247 189.12 88.8957C189.12 90.7667 187.581 92.1942 185.432 92.1942H181.439V82.4927H182.548ZM185.432 86.5673H182.548V91.1824H185.432C186.957 91.1824 188.011 90.24 188.011 88.8957C188.011 87.5513 186.888 86.5673 185.432 86.5673ZM191.824 82.4927V92.1942H190.714V82.4927H191.824Z" fill="black"/>
<path id="Vector_26" d="M202 92.1942H200.627L197.494 88.1473L194.347 92.1942H193.002L196.815 87.288L193.099 82.4927H194.458L197.508 86.401L200.544 82.4927H201.875L198.173 87.2603L202 92.1942Z" fill="black"/>
</g>
<g id="Group_4">
<path id="Vector_27" d="M57.8504 109.241V101.535L51.5143 109.241H50.6409V99.5396H51.75V107.231L58.0861 99.5396H58.9596V109.241H57.8504Z" fill="black"/>
<path id="Vector_28" d="M61.2194 99.5396H62.3285V103.85H68.0823V99.5396H69.1915V109.241H68.0823V104.917H62.3285V109.241H61.2194V99.5396Z" fill="black"/>
<path id="Vector_29" d="M71.4932 99.5396H75.4723C77.4826 99.5396 78.8414 100.537 78.8414 102.048C78.8414 103.074 78.1066 103.891 76.9974 104.293C78.4254 104.626 79.285 105.457 79.285 106.635C79.285 108.188 77.6629 109.241 75.4723 109.241H71.4932V99.5396ZM75.4723 100.496H72.6023V103.864H75.4723C76.734 103.864 77.7738 103.115 77.7738 102.173C77.7738 101.23 76.8449 100.496 75.4723 100.496ZM75.4723 104.806H72.6023V108.271H75.4723C77.0528 108.271 78.162 107.578 78.162 106.511C78.162 105.444 77.136 104.806 75.4723 104.806Z" fill="black"/>
<path id="Vector_30" d="M81.0595 99.5396H87.562V100.579H82.1687V103.85H87.3401V104.917H82.1687V108.188H87.562V109.241H81.0595V99.5396Z" fill="black"/>
<path id="Vector_31" d="M93.9675 108.396C95.5203 108.396 96.7681 107.509 97.3366 106.095H98.5289C97.8357 108.16 96.1442 109.449 93.9952 109.449C91.2778 109.449 89.2535 107.287 89.2535 104.404C89.2535 101.522 91.2639 99.3318 93.9952 99.3318C96.1303 99.3318 97.8357 100.621 98.5289 102.686H97.3227C96.7681 101.286 95.5203 100.385 93.9675 100.385C91.8739 100.385 90.3627 102.076 90.3627 104.39C90.3627 106.705 91.8878 108.396 93.9675 108.396Z" fill="black"/>
<path id="Vector_32" d="M102.938 100.579H99.5688V99.5396H107.402V100.579H104.047V109.241H102.938V100.579Z" fill="black"/>
<path id="Vector_33" d="M113.087 99.3318C115.86 99.3318 117.856 101.411 117.856 104.404C117.856 107.398 115.86 109.449 113.087 109.449C110.314 109.449 108.345 107.287 108.345 104.404C108.345 101.522 110.369 99.3318 113.087 99.3318ZM113.087 108.396C115.25 108.396 116.747 106.746 116.747 104.39C116.747 102.034 115.263 100.385 113.087 100.385C110.91 100.385 109.454 102.076 109.454 104.39C109.454 106.705 110.993 108.396 113.087 108.396Z" fill="black"/>
<path id="Vector_34" d="M119.603 99.5396H123.596C125.648 99.5396 127.284 100.925 127.284 102.838C127.284 104.751 125.551 106.15 123.596 106.15H120.712V109.241H119.603V99.5396ZM123.596 100.579H120.712V105.111H123.596C125.024 105.111 126.175 104.113 126.175 102.838C126.175 101.563 125.08 100.579 123.596 100.579Z" fill="black"/>
<path id="Vector_35" d="M133.357 99.3318C136.129 99.3318 138.126 101.411 138.126 104.404C138.126 107.398 136.129 109.449 133.357 109.449C130.584 109.449 128.615 107.287 128.615 104.404C128.615 101.522 130.639 99.3318 133.357 99.3318ZM133.357 108.396C135.519 108.396 137.017 106.746 137.017 104.39C137.017 102.034 135.533 100.385 133.357 100.385C131.18 100.385 129.724 102.076 129.724 104.39C129.724 106.705 131.263 108.396 133.357 108.396Z" fill="black"/>
<path id="Vector_36" d="M139.873 99.5396H143.852C145.862 99.5396 147.221 100.537 147.221 102.048C147.221 103.074 146.486 103.891 145.377 104.293C146.805 104.626 147.665 105.457 147.665 106.635C147.665 108.188 146.043 109.241 143.852 109.241H139.873V99.5396ZM143.852 100.496H140.982V103.864H143.852C145.114 103.864 146.154 103.115 146.154 102.173C146.154 101.23 145.225 100.496 143.852 100.496ZM143.852 104.806H140.982V108.271H143.852C145.433 108.271 146.542 107.578 146.542 106.511C146.542 105.444 145.516 104.806 143.852 104.806Z" fill="black"/>
</g>
<g id="Group_5">
<path id="Vector_37" d="M57.8504 124.431V116.725L51.5143 124.431H50.6409V114.729H51.75V122.421L58.0861 114.729H58.9596V124.431H57.8504Z" fill="black"/>
<path id="Vector_38" d="M65.7948 124.431H64.6857V114.729H65.7948V119.081H67.3754L70.8138 114.729H72.1448L68.2627 119.58L72.5191 124.431H71.1465L67.3615 120.079H65.7948V124.431Z" fill="black"/>
<path id="Vector_39" d="M73.7391 114.729H77.7321C79.784 114.729 81.42 116.115 81.42 118.028C81.42 119.94 79.687 121.34 77.7321 121.34H74.8482V124.431H73.7391V114.729ZM77.7321 115.769H74.8482V120.301H77.7321C79.1601 120.301 80.3109 119.303 80.3109 118.028C80.3109 116.753 79.2156 115.769 77.7321 115.769Z" fill="black"/>
<path id="Vector_40" d="M83.2226 114.729H89.7251V115.769H84.3318V119.039H89.5032V120.107H84.3318V123.377H89.7251V124.431H83.2226V114.729Z" fill="black"/>
<path id="Vector_41" d="M92.387 123.377C93.2189 121.894 93.6625 120.301 93.6625 118.457V114.729H99.5272V123.377H100.817V126.731H99.7075V124.431H92.387V126.731H91.2778V123.377H92.387ZM98.4181 123.377V115.769H94.7717V118.457C94.7717 120.287 94.3558 121.922 93.5239 123.377H98.4181Z" fill="black"/>
<path id="Vector_42" d="M109.579 124.431V116.725L103.243 124.431H102.369V114.729H103.479V122.421L109.815 114.729H110.688V124.431H109.579Z" fill="black"/>
<path id="Vector_43" d="M115.596 115.769H112.227V114.729H120.061V115.769H116.705V124.431H115.596V115.769Z" fill="black"/>
<path id="Vector_44" d="M125.745 114.522C128.518 114.522 130.514 116.601 130.514 119.594C130.514 122.588 128.518 124.639 125.745 124.639C122.972 124.639 121.003 122.477 121.003 119.594C121.003 116.711 123.028 114.522 125.745 114.522ZM125.745 123.586C127.908 123.586 129.405 121.936 129.405 119.58C129.405 117.224 127.922 115.575 125.745 115.575C123.568 115.575 122.112 117.266 122.112 119.58C122.112 121.895 123.651 123.586 125.745 123.586Z" fill="black"/>
<path id="Vector_45" d="M132.261 114.729H136.254C138.306 114.729 139.942 116.115 139.942 118.028C139.942 119.94 138.209 121.34 136.254 121.34H133.37V124.431H132.261V114.729ZM136.254 115.769H133.37V120.301H136.254C137.682 120.301 138.833 119.303 138.833 118.028C138.833 116.753 137.738 115.769 136.254 115.769Z" fill="black"/>
<path id="Vector_46" d="M146.015 114.522C148.788 114.522 150.784 116.601 150.784 119.594C150.784 122.588 148.788 124.639 146.015 124.639C143.242 124.639 141.273 122.477 141.273 119.594C141.273 116.711 143.297 114.522 146.015 114.522ZM146.015 123.586C148.178 123.586 149.675 121.936 149.675 119.58C149.675 117.224 148.192 115.575 146.015 115.575C143.838 115.575 142.382 117.266 142.382 119.58C142.382 121.895 143.921 123.586 146.015 123.586Z" fill="black"/>
<path id="Vector_47" d="M152.545 114.729H156.524C158.535 114.729 159.893 115.727 159.893 117.238C159.893 118.263 159.159 119.081 158.049 119.483C159.477 119.816 160.337 120.647 160.337 121.825C160.337 123.377 158.715 124.431 156.524 124.431H152.545V114.729ZM156.524 115.686H153.654V119.053H156.524C157.786 119.053 158.826 118.305 158.826 117.363C158.826 116.42 157.897 115.686 156.524 115.686ZM156.524 119.996H153.654V123.461H156.524C158.105 123.461 159.214 122.768 159.214 121.7C159.214 120.633 158.188 119.996 156.524 119.996Z" fill="black"/>
</g>
</g>
<g id="Group_6">
<path id="Vector_48" d="M39.1812 1.1656L20.2145 17.1731L1.26167 1.1656C0.76255 0.749824 0 1.09631 0 1.74769V9.86922C0 10.479 0.263426 11.0611 0.707092 11.463L15.6253 24.7264C16.1245 25.1698 16.4018 25.7935 16.4018 26.4588V30.9492C16.4018 31.6283 15.8472 32.1826 15.1678 32.1826H1.2894C0.582311 32.1826 0 32.7647 0 33.4715V40.0686C0 40.5536 0.277291 40.9833 0.679363 41.1912L26.1485 63.5184C26.6061 63.9204 26.3288 64.6688 25.7187 64.6688H1.2894C0.582311 64.6688 0 65.2508 0 65.9577V72.5547C0 72.9289 0.166375 73.2615 0.415936 73.4971L26.301 96.3233C26.8002 96.7668 26.4951 97.5984 25.8158 97.5984H1.2894C0.582311 97.5984 0 98.1805 0 98.8873V132.704C0 132.87 0.0138645 133.05 0.0415936 133.217C0.388207 136.695 3.32749 139.412 6.90454 139.412H39.1535C39.8606 139.412 40.4429 138.83 40.4429 138.123V132.51C40.4429 131.9 40.0131 131.387 39.4446 131.263H33.3581C32.651 131.263 32.0687 130.68 32.0687 129.974V108.118C32.0687 107.411 32.651 106.829 33.3581 106.829H39.098L39.1535 106.773C39.8606 106.773 40.4429 106.191 40.4429 105.484V98.8873C40.4429 98.5408 40.3042 98.2359 40.0963 98.0142L40.0685 97.9864L14.5162 75.0909C14.0171 74.6474 14.3359 73.8297 15.0014 73.8297H39.1535C39.8606 73.8297 40.4429 73.2476 40.4429 72.5408V65.9438C40.4429 65.5696 40.2904 65.237 40.0408 65.0152L14.7657 42.5494C14.2943 42.1197 14.5855 41.3298 15.2233 41.3298H39.1535C39.8606 41.3298 40.4429 40.7477 40.4429 40.0408V33.4438C40.4429 32.737 39.8606 32.1549 39.1535 32.1549H26.301C25.6217 32.1549 25.0671 31.6005 25.0671 30.9214V25.5025C25.0671 24.8372 25.3444 24.1997 25.8435 23.7701L39.3614 11.7679C40.0408 11.1581 40.429 10.2989 40.429 9.38415V1.74769C40.429 1.09631 39.6665 0.749824 39.1673 1.1656H39.1812ZM24.5541 129.932C24.5541 130.639 23.9718 131.221 23.2647 131.221H9.31697C8.60988 131.221 8.02757 130.639 8.02757 129.932V108.076C8.02757 107.369 8.60988 106.787 9.31697 106.787H23.2647C23.9718 106.787 24.5541 107.369 24.5541 108.076V129.932Z" fill="#8895A6"/>
<path id="Vector_49" d="M161.66 131.124H50.7164V139.356H161.66V131.124Z" fill="#D86468"/>
</g>
</g>
</svg>
