<svg width="190" height="56" viewBox="0 0 190 56" fill="none" xmlns="http://www.w3.org/2000/svg">
<path d="M167.769 27.9917L189.737 1.734C190.31 1.0404 189.835 0 188.935 0H177.788C176.953 0 176.167 0.363315 175.61 0.990858L157.408 21.6502C156.802 22.3439 155.934 22.7237 155.018 22.7237H148.863C147.93 22.7237 147.177 21.964 147.177 21.0227V1.78354C147.177 0.792687 146.391 0 145.409 0H136.357C135.686 0 135.113 0.379829 134.802 0.941315L104.158 36.1994C103.602 36.8269 102.57 36.4471 102.57 35.5883V1.78354C102.57 0.792687 101.785 0 100.802 0H91.7502C91.2428 0 90.7844 0.214686 90.457 0.561486L59.1261 36.381C58.5204 37.0746 57.3909 36.6452 57.3909 35.7204V1.78354C57.3909 0.792687 56.6052 0 55.6231 0H9.19957C8.95403 0 8.72486 0.0165143 8.49569 0.0495429C3.73221 0.544972 0 4.60749 0 9.56178V54.2165C0 55.2073 0.785729 56 1.76789 56H9.47785C10.3127 56 11.0166 55.4055 11.1966 54.6128V46.1905C11.1966 45.1996 11.9824 44.407 12.9645 44.407H42.9695C43.9517 44.407 44.7374 45.1996 44.7374 46.1905V54.1339L44.8193 54.2165C44.8193 55.2073 45.605 56 46.5872 56H55.6394C56.1141 56 56.5234 55.8183 56.8507 55.5046L56.8835 55.4715L88.2472 20.0979C88.8528 19.4043 89.9823 19.8502 89.9823 20.775V54.2165C89.9823 55.2073 90.768 56 91.7502 56H100.802C101.31 56 101.768 55.7853 102.079 55.4385L132.919 20.4612C133.508 19.8006 134.589 20.2135 134.589 21.1053V54.2165C134.589 55.2073 135.375 56 136.357 56H145.409C146.391 56 147.177 55.2073 147.177 54.2165V36.414C147.177 35.4727 147.93 34.7131 148.863 34.7131H156.295C157.211 34.7131 158.079 35.1094 158.684 35.7865L175.185 54.4972C176.02 55.4385 177.215 55.9835 178.459 55.9835H188.951C189.835 55.9835 190.326 54.9266 189.753 54.2495L167.786 27.9917H167.769ZM44.7374 32.2029C44.7374 33.1937 43.9517 33.9864 42.9695 33.9864H12.9482C11.966 33.9864 11.1803 33.1937 11.1803 32.2029V12.9142C11.1803 11.9233 11.966 11.1306 12.9482 11.1306H42.9695C43.9517 11.1306 44.7374 11.9233 44.7374 12.9142V32.2194V32.2029Z" fill="black"/>
</svg>
